<svg width="54" height="36" viewBox="0 0 54 36" fill="none" xmlns="http://www.w3.org/2000/svg">
<path d="M51.2697 3.10941L40.7784 9.16209V1.82767C40.7816 1.58878 40.7372 1.35165 40.648 1.13004C40.5587 0.908433 40.4263 0.706757 40.2585 0.536724C40.0907 0.366691 39.8908 0.231688 39.6703 0.139551C39.4499 0.0474142 39.2134 -2.06751e-05 38.9745 6.76014e-09L1.82767 6.76015e-09C1.34294 6.76015e-09 0.878067 0.192558 0.535312 0.535312C0.192558 0.878067 0 1.34294 0 1.82767L0 33.2304C0 33.7151 0.192558 34.18 0.535312 34.5227C0.878067 34.8655 1.34294 35.058 1.82767 35.058H38.9745C39.2134 35.0581 39.4499 35.0106 39.6703 34.9185C39.8908 34.8264 40.0907 34.6914 40.2585 34.5213C40.4263 34.3513 40.5587 34.1496 40.648 33.928C40.7372 33.7064 40.7816 33.4693 40.7784 33.2304V25.1839L51.1985 31.8062C51.4731 31.9884 51.7924 32.0919 52.1216 32.1055C52.4509 32.119 52.7776 32.0421 53.0662 31.8831C53.3549 31.7241 53.5945 31.4891 53.759 31.2036C53.9235 30.918 54.0066 30.5928 53.9994 30.2634V4.7472C54.008 4.42347 53.9304 4.10327 53.7746 3.81936C53.6188 3.53546 53.3904 3.29805 53.1127 3.13144C52.835 2.96482 52.518 2.87498 52.1942 2.87111C51.8703 2.86724 51.5513 2.94948 51.2697 3.10941ZM28.4832 19.3686L17.6596 25.6349C17.4472 25.7548 17.2071 25.8171 16.9632 25.8157C16.7193 25.8143 16.48 25.7493 16.269 25.627C16.058 25.5047 15.8825 25.3294 15.7601 25.1184C15.6376 24.9075 15.5724 24.6682 15.5708 24.4243V11.868C15.5724 11.6241 15.6376 11.3848 15.7601 11.1739C15.8825 10.963 16.058 10.7877 16.269 10.6654C16.48 10.5431 16.7193 10.478 16.9632 10.4766C17.2071 10.4752 17.4472 10.5376 17.6596 10.6575L28.4832 16.9475C28.695 17.0707 28.8708 17.2473 28.993 17.4598C29.1152 17.6722 29.1795 17.913 29.1795 18.158C29.1795 18.4031 29.1152 18.6439 28.993 18.8563C28.8708 19.0687 28.695 19.2453 28.4832 19.3686Z" fill="white"/>
</svg>
