<svg width="54" height="56" viewBox="0 0 54 56" fill="none" xmlns="http://www.w3.org/2000/svg">
<path d="M52.9635 20.0234L31.3193 1.58313C30.1077 0.560786 28.5735 0 26.9881 0C25.4028 0 23.8686 0.560786 22.6569 1.58313L1.03649 20.0234C0.578157 20.4102 0.250074 20.9287 0.0968635 21.5086C-0.0563472 22.0884 -0.0272494 22.7013 0.1802 23.264C0.387648 23.8267 0.76338 24.3119 1.2563 24.6535C1.74921 24.9951 2.33539 25.1767 2.9351 25.1734H4.73879V49.4993C4.73878 50.2618 4.88934 51.0167 5.18184 51.7208C5.47434 52.425 5.903 53.0644 6.44324 53.6024C6.98348 54.1405 7.62465 54.5665 8.32996 54.8561C9.03527 55.1457 9.79083 55.2932 10.5533 55.2901H23.7249V40.9318C23.7941 40.1267 24.1629 39.3767 24.7583 38.8303C25.3538 38.2839 26.1325 37.9807 26.9407 37.9807C27.7488 37.9807 28.5276 38.2839 29.123 38.8303C29.7184 39.3767 30.0872 40.1267 30.1564 40.9318V55.2901H43.423C44.1834 55.2901 44.9364 55.1403 45.639 54.8493C46.3416 54.5583 46.98 54.1317 47.5177 53.594C48.0554 53.0563 48.4819 52.4179 48.773 51.7154C49.064 51.0128 49.2138 50.2598 49.2138 49.4993V25.1734H51.0649C51.6646 25.1767 52.2508 24.9951 52.7437 24.6535C53.2366 24.3119 53.6124 23.8267 53.8198 23.264C54.0273 22.7013 54.0564 22.0884 53.9031 21.5086C53.7499 20.9287 53.4218 20.4102 52.9635 20.0234Z" fill="#DD2B51"/>
</svg>
