<svg width="38" height="28" viewBox="0 0 38 28" fill="none" xmlns="http://www.w3.org/2000/svg">
<path d="M18.5167 27.041C14.9702 27.041 11.3952 27.041 7.86298 27.041C5.95842 27.0642 4.11264 26.3901 2.68182 25.1488C1.25099 23.9074 0.336515 22.1869 0.114855 20.3191C-0.203533 18.5187 0.14515 16.6653 1.09713 15.0979C2.04911 13.5305 3.54076 12.3538 5.29926 11.7831C5.99687 11.6316 6.62674 11.2629 7.09601 10.7312C7.56528 10.1995 7.84912 9.53304 7.90571 8.83001C8.38936 6.46893 9.64774 4.33107 11.4861 2.74733C13.3245 1.16359 15.6403 0.222271 18.0751 0.0690766C20.566 -0.21075 23.0785 0.364919 25.19 1.69925C27.3014 3.03359 28.8831 5.04517 29.6688 7.39564C29.8719 7.98488 30.2045 8.52245 30.6429 8.9698C31.0812 9.41715 31.6143 9.7632 32.2041 9.98314C36.6906 11.966 38.7273 15.7488 37.7588 20.0519C36.7475 24.566 33.5714 26.9706 28.5294 27.0128C25.2108 27.0691 21.8922 27.041 18.5167 27.041ZM21.1231 17.1972C20.9379 24.2285 20.9379 24.2285 27.5324 24.1581C28.0024 24.1581 28.4867 24.1581 28.9567 24.1581C30.4518 24.2313 31.9159 23.7207 33.0327 22.7365C34.1494 21.7523 34.829 20.3737 34.9245 18.8988C35.2663 15.7066 33.785 13.2035 30.6516 12.5566C29.7285 12.4414 28.8718 12.0218 28.2204 11.3659C27.569 10.7099 27.1609 9.85602 27.0624 8.94251C25.809 4.49876 22.2198 2.41751 17.5766 3.00814C15.624 3.28129 13.8389 4.24685 12.5546 5.72449C11.2703 7.20214 10.5747 9.09082 10.5976 11.0378C10.5976 13.5831 9.61486 14.0753 7.37872 14.2863C6.72754 14.3288 6.09212 14.5028 5.51177 14.7975C4.93141 15.0922 4.41845 15.5013 4.00461 15.9996C3.59078 16.4978 3.28485 17.0745 3.10577 17.6942C2.92668 18.3138 2.87824 18.9631 2.96343 19.6019C3.40496 22.2597 4.84349 24.13 7.89147 24.1581C9.31575 24.1581 10.74 24.1581 12.1643 24.1581C18.3742 24.1581 18.3742 24.1581 18.1748 18.0972C18.1212 17.795 18.0253 17.5016 17.89 17.2253C16.7933 17.3378 16.0099 19.1378 14.7708 17.6613C14.3577 17.1972 13.9874 16.6628 14.5002 16.1425C16.0811 14.5675 17.4912 12.5847 19.3997 11.6847C20.6246 11.1222 21.6501 13.4003 22.8322 14.3144C23.1012 14.54 23.3535 14.7844 23.5871 15.0456C24.2993 15.791 25.3532 16.4519 24.4417 17.6894C23.3165 19.166 22.4334 17.6894 21.1801 17.1972H21.1231Z" fill="white"/>
</svg>
