<svg width="29" height="30" viewBox="0 0 29 30" fill="none" xmlns="http://www.w3.org/2000/svg">
<path d="M14.0419 0.00866432C17.4092 0.00866432 20.7904 0.120742 24.1577 0.00866432C27.0639 -0.117423 28.0559 1.12944 28 3.95939C27.8603 9.56325 27.8603 15.1671 28 20.771C28.0699 23.5729 26.7984 24.6376 24.2555 24.5116C20.9721 24.3715 17.8842 24.2174 15.8723 27.8178C15.684 28.1969 15.3912 28.5139 15.0287 28.7311C14.6662 28.9484 14.2491 29.0568 13.827 29.0435C13.4048 29.0303 12.9954 28.8958 12.6471 28.6562C12.2989 28.4166 12.0265 28.0819 11.8623 27.6918C10.1018 24.7357 7.67066 24.3434 4.52695 24.4835C0.47505 24.6236 0 24.0072 0 19.8884V4.85601C0 0.162771 0.111776 0.00866432 4.62475 0.00866432H14.0419ZM25.2196 12.3232C25.2196 9.88548 25.1357 7.41977 25.2196 4.98209C25.2615 3.399 24.8563 2.8106 23.0958 2.8106C17.0459 2.90866 10.996 2.95069 4.93214 2.8106C2.79441 2.8106 2.79441 3.70721 2.79441 5.29031C2.79441 9.81543 2.96208 14.3966 2.79441 18.9357C2.68263 21.4294 3.68862 21.8497 5.7984 21.7376C8.59281 21.5275 11.3872 21.3314 12.9661 24.5396C13.7206 26.0246 14.503 25.2541 15.3273 24.3575C16.3613 23.2367 16.9481 21.7376 19.0439 21.6676C25.1497 21.3874 25.1497 21.2613 25.1497 15.1671L25.2196 12.3232Z" fill="white"/>
<path d="M14.461 11.2168H17.9261C18.8063 11.2168 19.5608 11.4269 19.5608 12.6178C19.5608 13.8086 19.1836 14.0187 18.1636 14.0187H9.86422C8.90014 14.0187 8.38318 13.6685 8.38318 12.6178C8.38318 11.567 9.05384 11.2168 9.96202 11.2168H14.461Z" fill="white"/>
</svg>
