<svg width="55" height="55" viewBox="0 0 55 55" fill="none" xmlns="http://www.w3.org/2000/svg">
<path d="M21.9635 5.51455e-06C17.622 -0.00307142 13.377 1.28154 9.76565 3.69134C6.15428 6.10114 3.33874 9.52786 1.67517 13.5381C0.0115923 17.5482 -0.42527 21.9617 0.419839 26.2202C1.26495 30.4787 3.35406 34.3909 6.42291 37.462C9.49177 40.533 13.4025 42.6249 17.6604 43.473C21.9183 44.3212 26.3321 43.8874 30.3435 42.2267C34.3548 40.566 37.7836 37.7528 40.1959 34.1432C42.6083 30.5335 43.8959 26.2895 43.8959 21.9479C43.8877 16.1322 41.5748 10.5568 37.4639 6.44298C33.353 2.32917 27.7792 0.0123474 21.9635 5.51455e-06ZM21.9635 36.2584C19.1325 36.2615 16.3642 35.4248 14.0088 33.8543C11.6534 32.2837 9.81676 30.0498 8.73125 27.4351C7.64574 24.8205 7.36012 21.9426 7.91054 19.1657C8.46095 16.3887 9.82267 13.8373 11.8234 11.8344C13.8241 9.8315 16.374 8.46701 19.1504 7.91357C21.9268 7.36014 24.8049 7.64262 27.4207 8.72529C30.0366 9.80796 32.2725 11.6422 33.8456 13.9958C35.4188 16.3495 36.2584 19.1169 36.2584 21.9479C36.2543 25.7394 34.7474 29.3746 32.068 32.057C29.3885 34.7394 25.7549 36.2502 21.9635 36.2584Z" fill="white"/>
<path d="M53.1044 48.4689L44.3314 39.6959C43.6136 38.976 42.6392 38.5708 41.6226 38.5693C40.606 38.5679 39.6304 38.9703 38.9105 39.6882C38.1906 40.406 37.7854 41.3804 37.7839 42.397C37.7825 43.4136 38.1849 44.3891 38.9028 45.109L47.6757 53.882C48.3915 54.5977 49.3622 54.9999 50.3745 54.9999C51.3867 54.9999 52.3575 54.5977 53.0733 53.882C53.789 53.1662 54.1911 52.1954 54.1911 51.1832C54.1911 50.171 53.789 49.2002 53.0733 48.4844L53.1044 48.4689Z" fill="white"/>
</svg>
