<svg width="34" height="30" viewBox="0 0 34 30" fill="none" xmlns="http://www.w3.org/2000/svg">
<path d="M16.5803 0C21.1663 0 25.7524 0 30.3936 0C33.0182 0 33.7779 0.912733 32.3827 3.3052C27.7783 11.3262 23.1462 19.3472 18.4866 27.3681C18.0445 28.1288 17.6025 29.1106 16.4698 29C15.3371 28.8894 15.0885 27.8107 14.8951 26.9671C13.0089 17.8577 8.21968 9.6075 1.24755 3.45732C0.543069 2.76586 -0.313356 2.08822 0.114857 1.05103C0.543069 0.0138293 1.73101 0 2.76701 0H16.5803ZM4.78376 2.90415C7.20108 5.67 9.17639 7.85503 11.055 10.123C11.1973 10.3688 11.3937 10.5788 11.6293 10.737C11.8648 10.8953 12.1334 10.9977 12.4144 11.0364C12.6955 11.075 12.9817 11.049 13.2512 10.9602C13.5207 10.8714 13.7664 10.7223 13.9696 10.5241C15.9587 9.14115 18.1136 8.02098 20.1165 6.73486C20.9868 6.18169 21.7741 5.89127 22.4924 6.90081C23.2107 7.91035 22.6167 8.72628 21.6222 9.32093C19.5364 10.5379 17.4782 11.824 15.4614 13.0963C14.6188 13.6218 13.6105 13.8984 14.2044 15.4058C15.199 17.9504 15.9311 20.5918 16.9671 23.8417C21.1802 16.5951 25.0064 9.88794 29.0123 2.90415H4.78376Z" fill="white"/>
</svg>
